<?xml version="1.0" encoding="UTF-8"?>
<svg width="162px" height="48px" viewBox="0 0 162 48" version="1.1" xmlns="http://www.w3.org/2000/svg" xmlns:xlink="http://www.w3.org/1999/xlink">
    <!-- Generator: Sketch 52 (66869) - http://www.bohemiancoding.com/sketch -->
    <title>android</title>
    <desc>Created with Sketch.</desc>
    <defs>
        <linearGradient x1="90.7691814%" y1="4.84009081%" x2="-62.0622655%" y2="26.3279306%" id="linearGradient-1">
            <stop stop-color="#00A0FF" offset="0%"></stop>
            <stop stop-color="#00A1FF" offset="0.7%"></stop>
            <stop stop-color="#00BEFF" offset="26%"></stop>
            <stop stop-color="#00D2FF" offset="51.2%"></stop>
            <stop stop-color="#00DFFF" offset="76%"></stop>
            <stop stop-color="#00E3FF" offset="100%"></stop>
        </linearGradient>
        <linearGradient x1="107.72396%" y1="49.4233259%" x2="-130.669569%" y2="49.4233259%" id="linearGradient-2">
            <stop stop-color="#FFE000" offset="0%"></stop>
            <stop stop-color="#FFBD00" offset="40.9%"></stop>
            <stop stop-color="#FFA500" offset="77.5%"></stop>
            <stop stop-color="#FF9C00" offset="100%"></stop>
        </linearGradient>
        <linearGradient x1="86.3889582%" y1="17.8140811%" x2="-9.21080218%" y2="225.78258%" id="linearGradient-3">
            <stop stop-color="#FF3A44" offset="0%"></stop>
            <stop stop-color="#C31162" offset="100%"></stop>
        </linearGradient>
        <linearGradient x1="-18.5808915%" y1="-54.528247%" x2="23.7737733%" y2="38.9053063%" id="linearGradient-4">
            <stop stop-color="#32A071" offset="0%"></stop>
            <stop stop-color="#2DA771" offset="6.9%"></stop>
            <stop stop-color="#15CF74" offset="47.6%"></stop>
            <stop stop-color="#06E775" offset="80.1%"></stop>
            <stop stop-color="#00F076" offset="100%"></stop>
        </linearGradient>
    </defs>
    <g id="Page-1" stroke="none" stroke-width="1" fill="none" fill-rule="evenodd">
        <g id="android">
            <path d="M155.945,47.9832 L5.9979,47.9832 C2.63908,47.9832 0,45.3441 0,41.9853 L0,5.9979 C0,2.63908 2.63908,0 5.9979,0 L155.945,0 C159.304,0 161.943,2.63908 161.943,5.9979 L161.943,41.9853 C161.943,45.3441 159.304,47.9832 155.945,47.9832 Z" id="Path" fill="#000000"></path>
            <path d="M155.945,0.959664 C158.704,0.959664 160.984,3.23887 160.984,5.9979 L160.984,41.9853 C160.984,44.7443 158.704,47.0235 155.945,47.0235 L5.9979,47.0235 C3.23887,47.0235 0.959664,44.7443 0.959664,41.9853 L0.959664,5.9979 C0.959664,3.23887 3.23887,0.959664 5.9979,0.959664 L155.945,0.959664 Z M155.945,0 L5.9979,0 C2.63908,0 0,2.75903 0,5.9979 L0,41.9853 C0,45.3441 2.63908,47.9832 5.9979,47.9832 L155.945,47.9832 C159.304,47.9832 161.943,45.3441 161.943,41.9853 L161.943,5.9979 C161.943,2.75903 159.304,0 155.945,0 Z" id="Shape" fill="#A6A6A6" fill-rule="nonzero"></path>
            <path d="M56.8601,12.2355 C56.8601,13.1951 56.6202,14.0348 56.0204,14.6346 C55.3006,15.3544 54.4609,15.7142 53.3813,15.7142 C52.3017,15.7142 51.462,15.3544 50.7422,14.6346 C50.0225,13.9149 49.6626,13.0752 49.6626,11.9956 C49.6626,10.9159 50.0225,10.0762 50.7422,9.35648 C51.462,8.63673 52.3017,8.27686 53.3813,8.27686 C53.8611,8.27686 54.341,8.39681 54.8208,8.63673 C55.3006,8.87664 55.6605,9.11656 55.9004,9.47643 L55.3006,10.0762 C54.8208,9.47644 54.221,9.23652 53.3813,9.23652 C52.6615,9.23652 51.9418,9.47644 51.462,10.0762 C50.8622,10.5561 50.6223,11.2758 50.6223,12.1155 C50.6223,12.9552 50.8622,13.675 51.462,14.1548 C52.0618,14.6346 52.6615,14.9945 53.3813,14.9945 C54.221,14.9945 54.8208,14.7546 55.4206,14.1548 C55.7805,13.7949 56.0204,13.3151 56.0204,12.7153 L53.3813,12.7153 L53.3813,11.7556 L56.8601,11.7556 L56.8601,12.2355 Z M62.3781,9.23652 L59.1393,9.23652 L59.1393,11.5157 L62.1382,11.5157 L62.1382,12.3554 L59.1393,12.3554 L59.1393,14.6346 L62.3781,14.6346 L62.3781,15.5943 L58.1796,15.5943 L58.1796,8.39681 L62.3781,8.39681 L62.3781,9.23652 Z M66.3368,15.5943 L65.3771,15.5943 L65.3771,9.23652 L63.3378,9.23652 L63.3378,8.39681 L68.376,8.39681 L68.376,9.23652 L66.3368,9.23652 L66.3368,15.5943 Z M71.8548,15.5943 L71.8548,8.39681 L72.8145,8.39681 L72.8145,15.5943 L71.8548,15.5943 Z M76.8931,15.5943 L75.9334,15.5943 L75.9334,9.23652 L73.8941,9.23652 L73.8941,8.39681 L78.8124,8.39681 L78.8124,9.23652 L76.7731,9.23652 L76.7731,15.5943 L76.8931,15.5943 Z M88.2891,14.6346 C87.5693,15.3544 86.7296,15.7142 85.65,15.7142 C84.5704,15.7142 83.7307,15.3544 83.0109,14.6346 C82.2912,13.9149 81.9313,13.0752 81.9313,11.9956 C81.9313,10.9159 82.2912,10.0762 83.0109,9.35648 C83.7307,8.63673 84.5704,8.27686 85.65,8.27686 C86.7296,8.27686 87.5693,8.63673 88.2891,9.35648 C89.0088,10.0762 89.3687,10.9159 89.3687,11.9956 C89.3687,13.0752 89.0088,13.9149 88.2891,14.6346 Z M83.7307,14.0348 C84.2105,14.5147 84.9302,14.8745 85.65,14.8745 C86.3697,14.8745 87.0895,14.6346 87.5693,14.0348 C88.0492,13.555 88.409,12.8353 88.409,11.9956 C88.409,11.1558 88.1691,10.4361 87.5693,9.95627 C87.0895,9.47644 86.3697,9.11656 85.65,9.11656 C84.9302,9.11656 84.2105,9.35648 83.7307,9.95627 C83.2508,10.4361 82.891,11.1558 82.891,11.9956 C82.891,12.8353 83.1309,13.555 83.7307,14.0348 Z M90.6882,15.5943 L90.6882,8.39681 L91.7679,8.39681 L95.2466,14.0348 L95.2466,8.39681 L96.2063,8.39681 L96.2063,15.5943 L95.2466,15.5943 L91.5279,9.71635 L91.5279,15.5943 L90.6882,15.5943 Z" id="Shape" fill="#FFFFFF" fill-rule="nonzero"></path>
            <path d="M81.6914,26.1507 C78.8124,26.1507 76.5332,28.31 76.5332,31.3089 C76.5332,34.1879 78.8124,36.4671 81.6914,36.4671 C84.5704,36.4671 86.8496,34.3079 86.8496,31.3089 C86.8496,28.19 84.5704,26.1507 81.6914,26.1507 Z M81.6914,34.3079 C80.132,34.3079 78.8124,32.9883 78.8124,31.1889 C78.8124,29.3896 80.132,28.07 81.6914,28.07 C83.2509,28.07 84.5704,29.2696 84.5704,31.1889 C84.5704,32.9883 83.2509,34.3079 81.6914,34.3079 Z M70.5353,26.1507 C67.6563,26.1507 65.3771,28.31 65.3771,31.3089 C65.3771,34.1879 67.6563,36.4671 70.5353,36.4671 C73.4143,36.4671 75.6935,34.3079 75.6935,31.3089 C75.6935,28.19 73.4143,26.1507 70.5353,26.1507 Z M70.5353,34.3079 C68.9759,34.3079 67.6563,32.9883 67.6563,31.1889 C67.6563,29.3896 68.9759,28.07 70.5353,28.07 C72.0948,28.07 73.4143,29.2696 73.4143,31.1889 C73.4143,32.9883 72.0948,34.3079 70.5353,34.3079 Z M57.22,27.7102 L57.22,29.8694 L62.3782,29.8694 C62.2582,31.069 61.7784,32.0287 61.1786,32.6284 C60.4588,33.3482 59.2593,34.1879 57.22,34.1879 C53.9811,34.1879 51.5819,31.6688 51.5819,28.4299 C51.5819,25.1911 54.1011,22.6719 57.22,22.6719 C58.8994,22.6719 60.2189,23.3917 61.1786,24.2314 L62.738,22.6719 C61.4185,21.4724 59.7391,20.5127 57.3399,20.5127 C53.0214,20.5127 49.3027,24.1114 49.3027,28.4299 C49.3027,32.7484 53.0214,36.3471 57.3399,36.3471 C59.7391,36.3471 61.4185,35.6274 62.858,34.0679 C64.2975,32.6284 64.7773,30.5892 64.7773,29.0297 C64.7773,28.5499 64.7773,28.07 64.6574,27.7102 L57.22,27.7102 Z M111.681,29.3896 C111.201,28.19 110.002,26.1507 107.362,26.1507 C104.723,26.1507 102.564,28.19 102.564,31.3089 C102.564,34.1879 104.723,36.4671 107.602,36.4671 C109.882,36.4671 111.321,35.0276 111.801,34.1879 L110.121,32.9883 C109.522,33.828 108.802,34.4278 107.602,34.4278 C106.403,34.4278 105.683,33.948 105.083,32.8684 L111.921,29.9894 L111.681,29.3896 Z M104.723,31.069 C104.723,29.1497 106.283,28.07 107.362,28.07 C108.202,28.07 109.042,28.5499 109.282,29.1497 L104.723,31.069 Z M99.0853,35.9873 L101.365,35.9873 L101.365,20.9925 L99.0853,20.9925 L99.0853,35.9873 Z M95.4866,27.2303 C94.8868,26.6305 93.9271,26.0308 92.7275,26.0308 C90.2084,26.0308 87.8093,28.31 87.8093,31.1889 C87.8093,34.0679 90.0885,36.2272 92.7275,36.2272 C93.9271,36.2272 94.8868,35.6274 95.3666,35.0276 L95.4866,35.0276 L95.4866,35.7473 C95.4866,37.6667 94.407,38.7463 92.7275,38.7463 C91.408,38.7463 90.4483,37.7866 90.2084,36.9469 L88.2891,37.7866 C88.8889,39.1062 90.3284,40.7856 92.8475,40.7856 C95.4866,40.7856 97.6458,39.2261 97.6458,35.5074 L97.6458,26.3906 L95.4866,26.3906 L95.4866,27.2303 Z M92.8475,34.3079 C91.2881,34.3079 89.9685,32.9883 89.9685,31.1889 C89.9685,29.3896 91.2881,28.07 92.8475,28.07 C94.407,28.07 95.6065,29.3896 95.6065,31.1889 C95.6065,32.9883 94.407,34.3079 92.8475,34.3079 Z M122.117,20.9925 L116.719,20.9925 L116.719,35.9873 L118.998,35.9873 L118.998,30.3492 L122.117,30.3492 C124.636,30.3492 127.036,28.5499 127.036,25.6709 C127.036,22.7919 124.636,20.9925 122.117,20.9925 Z M122.237,28.19 L118.998,28.19 L118.998,23.0318 L122.237,23.0318 C123.917,23.0318 124.876,24.4713 124.876,25.5509 C124.756,26.8705 123.797,28.19 122.237,28.19 Z M136.032,26.0308 C134.353,26.0308 132.674,26.7505 132.074,28.31 L134.113,29.1497 C134.593,28.31 135.313,28.07 136.152,28.07 C137.352,28.07 138.432,28.7898 138.552,29.9894 L138.552,30.1093 C138.192,29.8694 137.232,29.5095 136.272,29.5095 C134.113,29.5095 131.954,30.7091 131.954,32.8684 C131.954,34.9076 133.753,36.2272 135.673,36.2272 C137.232,36.2272 137.952,35.5074 138.552,34.7877 L138.671,34.7877 L138.671,35.9873 L140.831,35.9873 L140.831,30.2293 C140.591,27.5902 138.552,26.0308 136.032,26.0308 Z M135.792,34.3079 C135.073,34.3079 133.993,33.948 133.993,32.9883 C133.993,31.7887 135.313,31.4289 136.392,31.4289 C137.352,31.4289 137.832,31.6688 138.432,31.9087 C138.192,33.3482 136.992,34.3079 135.792,34.3079 Z M148.388,26.3906 L145.869,32.8684 L145.749,32.8684 L143.11,26.3906 L140.711,26.3906 L144.669,35.5074 L142.39,40.5457 L144.669,40.5457 L150.787,26.3906 L148.388,26.3906 Z M128.235,35.9873 L130.514,35.9873 L130.514,20.9925 L128.235,20.9925 L128.235,35.9873 Z" id="Shape" fill="#FFFFFF" fill-rule="nonzero"></path>
            <path d="M12.4754,8.99658 C12.1156,9.35646 11.9956,9.95625 11.9956,10.676 L11.9956,37.1867 C11.9956,37.9065 12.2355,38.5063 12.5954,38.8661 L12.7154,38.9861 L27.5901,24.1113 L27.5901,23.8714 L12.4754,8.99658 Z" id="Path" fill="url(#linearGradient-1)"></path>
            <path d="M32.3885,29.15 L27.4702,24.2318 L27.4702,23.8719 L32.3885,18.9536 L32.5085,19.0736 L38.3864,22.4324 C40.0658,23.3921 40.0658,24.9515 38.3864,25.9112 L32.3885,29.15 Z" id="Path" fill="url(#linearGradient-2)"></path>
            <path d="M32.5086,29.0299 L27.4703,23.9917 L12.4756,38.9864 C13.0754,39.5862 13.9151,39.5862 14.9947,39.1064 L32.5086,29.0299 Z" id="Path" fill="url(#linearGradient-3)"></path>
            <path d="M32.5086,18.9534 L14.9947,8.99687 C13.9151,8.39708 13.0754,8.51704 12.4756,9.11683 L27.4703,23.9916 L32.5086,18.9534 Z" id="Path" fill="url(#linearGradient-4)"></path>
            <path d="M32.3886,28.9102 L14.9947,38.7467 C14.035,39.3465 13.1953,39.2265 12.5955,38.7467 L12.4756,38.8667 L12.5955,38.9866 C13.1953,39.4665 14.035,39.5864 14.9947,38.9866 L32.3886,28.9102 Z" id="Path" fill="#000000" opacity="0.2"></path>
            <path d="M12.4754,38.7466 C12.1156,38.3867 11.9956,37.7869 11.9956,37.0671 L11.9956,37.1871 C11.9956,37.9069 12.2355,38.5066 12.5954,38.8665 L12.5954,38.7466 L12.4754,38.7466 Z M38.3864,25.5512 L32.3885,28.91 L32.5084,29.0299 L38.3864,25.6711 C39.2261,25.1913 39.586,24.5915 39.586,23.9917 C39.586,24.5915 39.1061,25.0713 38.3864,25.5512 Z" id="Shape" fill="#000000" fill-rule="nonzero" opacity="0.12"></path>
            <path d="M14.9946,9.11691 L38.3864,22.4323 C39.1061,22.9121 39.586,23.3919 39.586,23.9917 C39.586,23.3919 39.2261,22.7921 38.3864,22.3123 L14.9946,8.99695 C13.3151,8.03729 11.9956,8.75704 11.9956,10.6764 L11.9956,10.7963 C11.9956,8.99695 13.3151,8.15725 14.9946,9.11691 Z" id="Path" fill="#FFFFFF" opacity="0.25"></path>
        </g>
    </g>
</svg>