<?xml version="1.0" encoding="UTF-8"?>
<svg width="465px" height="272px" viewBox="0 0 465 272" version="1.1" xmlns="http://www.w3.org/2000/svg" xmlns:xlink="http://www.w3.org/1999/xlink">
    <!-- Generator: Sketch 52 (66869) - http://www.bohemiancoding.com/sketch -->
    <title>64492897e2522ea5782b0f99_identity</title>
    <desc>Created with Sketch.</desc>
    <g id="Page-1" stroke="none" stroke-width="1" fill="none" fill-rule="evenodd">
        <g id="10-A" transform="translate(-184.000000, -752.000000)">
            <g id="64492897e2522ea5782b0f99_identity" transform="translate(184.000000, 752.000000)">
                <path d="M439.208534,271.5 L25.7914655,271.5 C11.5448276,271.5 0,262.208571 0,250.74269 L0,21.2573095 C0,9.79142857 11.5448276,0.5 25.7914655,0.5 L439.208534,0.5 C453.455172,0.5 465,9.79142857 465,21.2573095 L465,250.74269 C465,262.208571 453.455172,271.5 439.208534,271.5 Z" id="Path" fill="#EFEFEF"></path>
                <g id="Group-3" transform="translate(312.000000, 112.000000)">
                    <rect id="Rectangle" fill="#303441" x="0" y="0" width="120" height="120" rx="11"></rect>
                    <path d="M88.5974419,102.606215 L73.6093023,94.9400425 C72.5826357,94.4202007 71.9379845,93.3625916 71.9379845,92.2153547 L71.9379845,87.6204316 C79.6320155,84.3041998 84.0550388,77.856967 86.203876,69.7964323 C89.4450388,68.7925999 91.8326357,65.7870781 91.8326357,62.2198881 L91.8326357,58.2344347 C91.8326357,55.1811113 90.0777519,52.5520266 87.5468992,51.2135835 C85.7920155,36.2337758 75.9013953,30.1749305 60,30.1749305 C59.247907,30.1749305 58.5077519,30.2048065 57.7855039,30.2645584 C52.3835659,30.6947723 46.915969,29.6789895 42.4213178,26.6435917 C40.5530233,25.3828261 38.9772093,24.044383 37.8729457,22.6402127 C37.3715504,22.0008671 36.3568217,22.4071802 36.4523256,23.2198064 C36.6134884,24.6120263 36.8462791,26.2372786 37.1984496,28.017886 C38.5116279,34.6324242 37.7296899,33.664443 35.1749612,39.9085192 C33.7603101,43.3562053 32.8530233,47.1863037 32.4292248,51.2434594 C29.9103101,52.5878777 28.1673643,55.2109873 28.1673643,58.2523603 L28.1673643,62.2378137 C28.1673643,65.8050036 30.5549612,68.8045503 33.796124,69.8143578 C35.9449612,77.8748926 40.3679845,84.3221253 48.0620155,87.6383572 L48.0620155,92.1974291 C48.0620155,93.3625916 47.3994574,94.4321511 46.3548837,94.9460177 L30.9906977,102.522562 C26.7944961,104.811061 24.1860465,109.214777 24.1860465,113.994931 L24.1860465,117.645774 C24.1860465,117.645774 24.1860465,118.715334 24.1860465,119.277002 C24.1860465,119.52796 24.2517054,119.766967 24.3531783,120 L95.6527907,120 C95.7482946,119.749042 95.8139535,119.504059 95.8139535,119.259076 C95.8139535,118.697408 95.8139535,117.627849 95.8139535,117.627849 L95.8139535,114.299666 C95.8139535,109.346232 93.0204651,104.823011 88.5974419,102.606215 Z" id="Path" fill="#FFFFFF"></path>
                </g>
                <rect id="Rectangle" fill="#20272C" x="0" y="33.5" width="465" height="52"></rect>
                <g id="Group" opacity="0.45719401" transform="translate(26.000000, 116.500000)" fill="#AFB6BB">
                    <path d="M50,0.5 L5,0.5 C2.235,0.5 0,2.735 0,5.5 C0,8.265 2.235,10.5 5,10.5 L50,10.5 C52.765,10.5 55,8.265 55,5.5 C55,2.735 52.765,0.5 50,0.5 Z" id="Path"></path>
                    <path d="M120,5.5 C120,2.735 117.765,0.5 115,0.5 L70,0.5 C67.235,0.5 65,2.735 65,5.5 C65,8.265 67.235,10.5 70,10.5 L115,10.5 C117.765,10.5 120,8.265 120,5.5 Z" id="Path"></path>
                    <path d="M10,25.5 L5,25.5 C2.235,25.5 0,27.735 0,30.5 C0,33.265 2.235,35.5 5,35.5 L10,35.5 C12.765,35.5 15,33.265 15,30.5 C15,27.735 12.765,25.5 10,25.5 Z" id="Path"></path>
                    <path d="M40,25.5 L30,25.5 C27.235,25.5 25,27.735 25,30.5 C25,33.265 27.235,35.5 30,35.5 L40,35.5 C42.765,35.5 45,33.265 45,30.5 C45,27.735 42.765,25.5 40,25.5 Z" id="Path"></path>
                    <path d="M65,25.5 L60,25.5 C57.235,25.5 55,27.735 55,30.5 C55,33.265 57.235,35.5 60,35.5 L65,35.5 C67.765,35.5 70,33.265 70,30.5 C70,27.735 67.765,25.5 65,25.5 Z" id="Path"></path>
                    <path d="M95,25.5 L85,25.5 C82.235,25.5 80,27.735 80,30.5 C80,33.265 82.235,35.5 85,35.5 L95,35.5 C97.765,35.5 100,33.265 100,30.5 C100,27.735 97.765,25.5 95,25.5 Z" id="Path"></path>
                    <path d="M111.45,27.8962264 C110.545,28.8471698 110,30.1050314 110,31.4685535 C110,32.827044 110.545,34.0849057 111.45,35.0408805 C112.395,35.9465409 113.7,36.5 115,36.5 C116.3,36.5 117.6,35.9465409 118.55,35.0408805 C119.45,34.0849057 120,32.7767296 120,31.4685535 C120,30.1603774 119.45,28.8471698 118.55,27.8962264 C116.7,26.0345912 113.3,26.0345912 111.45,27.8962264 Z" id="Path"></path>
                </g>
                <g id="Group" transform="translate(28.000000, 194.500000)" fill="#000000">
                    <path d="M23.3014683,0.951070358 C15.0488041,5.14560703 12.2728053,13.1667386 11.2633512,21.4895824 C9.70397052,20.2165037 8.14835651,18.9397456 6.58897588,17.6629875 C2.89392177,14.6385058 -2.46597832,19.8154471 1.26297536,22.8656848 C4.78476495,25.7466692 8.31032116,28.631333 11.8321108,31.5159968 C14.3218465,33.5580739 18.1449657,32.2923541 18.2617309,28.9146482 C18.5366941,20.9413491 18.9284226,11.463168 27.1057544,7.30542548 C31.4147675,5.11617169 27.6067148,-1.23450402 23.3014683,0.951070358 Z" id="Path"></path>
                    <path d="M80.3016063,16.1374117 C78.7397818,13.93767 77.129958,12.0988531 74.2758438,11.878499 C68.8962261,11.4605861 59.6618927,19.3819358 55.8440996,12.3799945 C54.8767284,10.6019649 52.4841462,9.94850106 50.7930927,11.0160787 C45.5648576,14.3175909 38.7304909,19.0666015 33.2327211,12.9156829 C30.0019967,9.30263561 24.7922228,14.6899133 28.0118704,18.2877638 C34.9200823,26.0115547 43.8294971,23.6446478 51.6681575,19.2717588 C53.3222884,21.0991781 55.3013379,22.3491177 57.9339167,23.3255143 C61.2901778,24.5716547 73.0241688,18.6904799 73.9324639,19.9708131 C76.7016562,23.8877971 83.1151057,20.1037854 80.3016063,16.1374117 Z" id="Path"></path>
                </g>
            </g>
        </g>
    </g>
</svg>