<svg xmlns="http://www.w3.org/2000/svg" xmlns:xlink="http://www.w3.org/1999/xlink" viewBox="0 0 89.47 85.51"><defs><style>.cls-1{isolation:isolate;}.cls-2{fill:none;}.cls-3{fill:url(#linear-gradient);}.cls-4{fill:url(#linear-gradient-2);}.cls-5{fill:url(#linear-gradient-4);}.cls-6{opacity:0.6;mix-blend-mode:multiply;fill:url(#linear-gradient-5);}</style><linearGradient id="linear-gradient" x1="71.96" y1="83.08" x2="59.04" y2="18.7" gradientUnits="userSpaceOnUse"><stop offset="0" stop-color="#57d2fe"/><stop offset="1" stop-color="#57effe"/></linearGradient><linearGradient id="linear-gradient-2" x1="9.48" y1="75.71" x2="37.1" y2="36.54" gradientUnits="userSpaceOnUse"><stop offset="0.04" stop-color="#017dda"/><stop offset="1" stop-color="#015ed5"/></linearGradient><linearGradient id="linear-gradient-4" x1="68.4" y1="26.15" x2="29.84" y2="22.98" gradientUnits="userSpaceOnUse"><stop offset="0" stop-color="#57d2fe"/><stop offset="1" stop-color="#019cfe"/></linearGradient><linearGradient id="linear-gradient-5" x1="22.37" y1="44.65" x2="44.73" y2="44.65" xlink:href="#linear-gradient-2"/></defs><title>Asset 59</title><g class="cls-1"><g id="Layer_2" data-name="Layer 2"><g id="Layer_1-2" data-name="Layer 1"><line class="cls-2" x1="14.09" y1="42.33" x2="18.39" y2="34.9"/><path class="cls-3" d="M74.66,85.51a14.78,14.78,0,0,1-12.79-7.4L55,66.23,44.73,48.44,52.51,34.9a2.4,2.4,0,0,1,.26-.42A10.69,10.69,0,0,1,71,34.9l5,8.64L87.46,63.32A14.79,14.79,0,0,1,74.66,85.51Z"/><path class="cls-4" d="M14.8,85.51a14.77,14.77,0,0,0,12.79-7.4l6.87-11.88L44.73,48.44,37,34.9a3.19,3.19,0,0,0-.26-.42,10.69,10.69,0,0,0-18.27.42l-5,8.64L2,63.32A14.78,14.78,0,0,0,14.8,85.51Z"/><path class="cls-4" d="M14.8,85.51a14.77,14.77,0,0,0,12.79-7.4l6.87-11.88L44.73,48.44,37,34.9a3.19,3.19,0,0,0-.26-.42,10.69,10.69,0,0,0-18.27.42l-5,8.64L2,63.32A14.78,14.78,0,0,0,14.8,85.51Z"/><path class="cls-5" d="M71,34.9a10.69,10.69,0,0,0-18.27-.42,2.4,2.4,0,0,0-.26.42L44.73,48.44,36.92,34.9a10.69,10.69,0,0,0-18.53,0l9.29-16L35.45,5.35A10.7,10.7,0,0,1,54,5.35l7.81,13.51Z"/><path class="cls-6" d="M37,34.9a3.19,3.19,0,0,0-.26-.42A10.7,10.7,0,0,0,22.37,31c10.41-5.19,15.84,28.78,15.84,28.78h0l6.52-11.3Z"/></g></g></g></svg>