<?xml version="1.0" encoding="UTF-8"?>
<svg width="75px" height="74px" viewBox="0 0 75 74" version="1.1" xmlns="http://www.w3.org/2000/svg" xmlns:xlink="http://www.w3.org/1999/xlink">
    <!-- Generator: Sketch 52 (66869) - http://www.bohemiancoding.com/sketch -->
    <title>user</title>
    <desc>Created with Sketch.</desc>
    <defs>
        <ellipse id="path-1" cx="37.5" cy="36.9863014" rx="37.5" ry="36.9863014"></ellipse>
    </defs>
    <g id="Mobile-app" stroke="none" stroke-width="1" fill="none" fill-rule="evenodd">
        <g id="Solicitudes" transform="translate(-36.000000, -223.000000)">
            <g id="Ficha-1" transform="translate(15.000000, 188.000000)">
                <g id="user" transform="translate(21.000000, 35.000000)">
                    <mask id="mask-2" fill="white">
                        <use xlink:href="#path-1"></use>
                    </mask>
                    <use id="Oval" fill="#F5F5F5" xlink:href="#path-1"></use>
                    <g opacity="0.129185268" mask="url(#mask-2)" fill="#000000" id="Path">
                        <g transform="translate(24.000000, 21.000000)">
                            <path d="M13.5625,0 C8.9789875,0 5.25,3.7289875 5.25,8.3125 C5.25,12.8960125 8.9789875,16.625 13.5625,16.625 C18.1460125,16.625 21.875,12.8960125 21.875,8.3125 C21.875,3.7289875 18.1460125,0 13.5625,0 Z"></path>
                            <path d="M24.4512178,22.8528744 C22.1514844,20.5295018 19.1027822,19.25 15.8666667,19.25 L12.1333333,19.25 C8.89728,19.25 5.84851556,20.5295018 3.54878222,22.8528744 C1.26031111,25.1648555 0,28.2166657 0,31.4463443 C0,31.9592099 0.417884444,32.375 0.933333333,32.375 L27.0666667,32.375 C27.5821156,32.375 28,31.9592099 28,31.4463443 C28,28.2166657 26.7396889,25.1648555 24.4512178,22.8528744 Z"></path>
                        </g>
                    </g>
                </g>
            </g>
        </g>
    </g>
</svg>