<?xml version="1.0" encoding="UTF-8"?>
<svg width="272px" height="465px" viewBox="0 0 272 465" version="1.1" xmlns="http://www.w3.org/2000/svg" xmlns:xlink="http://www.w3.org/1999/xlink">
    <!-- Generator: Sketch 52 (66869) - http://www.bohemiancoding.com/sketch -->
    <title>Video</title>
    <desc>Created with Sketch.</desc>
    <g id="Page-1" stroke="none" stroke-width="1" fill="none" fill-rule="evenodd">
        <g id="10-A" transform="translate(-260.000000, -736.000000)">
            <g id="Video" transform="translate(260.000000, 736.000000)">
                <g id="video" transform="translate(136.000000, 232.500000) rotate(90.000000) translate(-136.000000, -232.500000) translate(-96.500000, 96.500000)" fill="#EFEFEF" opacity="0.898018973">
                    <path d="M439.208534,271.5 L25.7914655,271.5 C11.5448276,271.5 0,262.208571 0,250.74269 L0,21.2573095 C0,9.79142857 11.5448276,0.5 25.7914655,0.5 L439.208534,0.5 C453.455172,0.5 465,9.79142857 465,21.2573095 L465,250.74269 C465,262.208571 453.455172,271.5 439.208534,271.5 Z" id="Path"></path>
                </g>
                <circle id="Oval" fill="#FFFFFF" cx="138.5" cy="235.5" r="56.5"></circle>
                <g id="film-3" transform="translate(118.000000, 220.000000)" fill="#DADADA" fill-rule="nonzero">
                    <path d="M39.4276968,0 L1.57230319,0 C0.921602269,0 0.394230769,0.532603895 0.394230769,1.18976084 L0.394230769,32.7140853 C0.394230769,33.3712423 0.921602269,33.9038462 1.57230319,33.9038462 L39.4276968,33.9038462 C40.0783977,33.9038462 40.6057692,33.3712423 40.6057692,32.7140853 L40.6057692,1.18976084 C40.6057692,0.532603895 40.0783977,0 39.4276968,0 Z M15.5162015,20.9459874 L15.5162015,12.9578588 C15.5162015,12.3865257 15.8389442,11.8656955 16.3583392,11.598619 C16.8860174,11.3275146 17.5281282,11.3637651 18.0165374,11.6866117 L24.7573205,15.6605368 C24.791681,15.680676 24.8248143,15.7026742 24.8570272,15.7262215 C25.255547,16.0193241 25.4841054,16.4661041 25.4841054,16.9519231 C25.4841054,17.4377421 25.255547,17.8845221 24.8570272,18.1776246 C24.8248143,18.201172 24.791681,18.2231702 24.7573205,18.2433093 L18.0165374,22.2172345 C17.7465625,22.3953887 17.4302623,22.48617 17.1118146,22.48617 C16.8538045,22.48617 16.5945673,22.4263722 16.3583392,22.3049174 C15.8386375,22.0381507 15.5162015,21.5173205 15.5162015,20.9459874 Z M28.0577641,4.45106884 L28.0577641,2.37952167 L32.0107492,2.37952167 L32.0107492,4.45106884 L28.0577641,4.45106884 Z M25.7016192,4.45106884 L21.7483272,4.45106884 L21.7483272,2.37952167 L25.7016192,2.37952167 L25.7016192,4.45106884 Z M19.3921824,4.45106884 L15.4391972,4.45106884 L15.4391972,2.37952167 L19.3921824,2.37952167 L19.3921824,4.45106884 Z M13.0830524,4.45106884 L9.13006726,4.45106884 L9.13006726,2.37952167 L13.0830524,2.37952167 L13.0830524,4.45106884 Z M13.0830524,29.4527774 L13.0830524,31.5243245 L9.13006726,31.5243245 L9.13006726,29.4527774 L13.0830524,29.4527774 Z M15.4391972,29.4527774 L19.3921824,29.4527774 L19.3921824,31.5243245 L15.4391972,31.5243245 L15.4391972,29.4527774 Z M21.7483272,29.4527774 L25.7016192,29.4527774 L25.7016192,31.5243245 L21.7483272,31.5243245 L21.7483272,29.4527774 Z M28.0577641,29.4527774 L32.0107492,29.4527774 L32.0107492,31.5243245 L28.0577641,31.5243245 L28.0577641,29.4527774 Z M38.2496244,4.45106884 L34.3668941,4.45106884 L34.3668941,2.37952167 L38.2496244,2.37952167 L38.2496244,4.45106884 Z M6.77392243,2.37952167 L6.77392243,4.45106884 L2.7503756,4.45106884 L2.7503756,2.37952167 L6.77392243,2.37952167 Z M2.7503756,29.4527774 L6.77392243,29.4527774 L6.77392243,31.5243245 L2.7503756,31.5243245 L2.7503756,29.4527774 Z M34.3668941,31.5243245 L34.3668941,29.4527774 L38.2496244,29.4527774 L38.2496244,31.5243245 L34.3668941,31.5243245 Z" id="Shape"></path>
                </g>
            </g>
        </g>
    </g>
</svg>