<?xml version="1.0" encoding="UTF-8"?>
<svg width="102px" height="23px" viewBox="0 0 102 23" version="1.1" xmlns="http://www.w3.org/2000/svg" xmlns:xlink="http://www.w3.org/1999/xlink">
    <!-- Generator: Sketch 52 (66869) - http://www.bohemiancoding.com/sketch -->
    <title>Artboard</title>
    <desc>Created with Sketch.</desc>
    <defs>
        <linearGradient x1="60.8311731%" y1="95.6825957%" x2="32.0006242%" y2="-19.4106909%" id="linearGradient-1">
            <stop stop-color="#57D2FE" offset="0%"></stop>
            <stop stop-color="#57EFFE" offset="100%"></stop>
        </linearGradient>
        <linearGradient x1="21.1673934%" y1="82.490349%" x2="82.8717856%" y2="12.4861681%" id="linearGradient-2">
            <stop stop-color="#017DDA" offset="4%"></stop>
            <stop stop-color="#015ED5" offset="100%"></stop>
        </linearGradient>
        <linearGradient x1="95.010925%" y1="53.8567832%" x2="21.7771304%" y2="47.3158633%" id="linearGradient-3">
            <stop stop-color="#57D2FE" offset="0%"></stop>
            <stop stop-color="#019CFE" offset="100%"></stop>
        </linearGradient>
        <linearGradient x1="-1.52346213e-14%" y1="50.0719149%" x2="100%" y2="50.0719149%" id="linearGradient-4">
            <stop stop-color="#017DDA" offset="4%"></stop>
            <stop stop-color="#015ED5" offset="100%"></stop>
        </linearGradient>
    </defs>
    <g id="Artboard" stroke="none" stroke-width="1" fill="none" fill-rule="evenodd">
        <g id="SVG-(3)" transform="translate(1.000000, 4.000000)">
            <path d="M2.57118902,6.86933333 L3.26094512,5.66222222" id="Path"></path>
            <path d="M12.2985976,13.8755556 C11.4506956,13.8750928 10.6675754,13.4172062 10.2447256,12.6746667 L9.14234756,10.7457778 L7.49185976,7.86177778 L8.74204268,5.66222222 C8.75362391,5.63869234 8.76810917,5.61673976 8.78515244,5.59688889 C9.10738189,5.08640177 9.66995683,4.78285261 10.2690787,4.7962052 C10.8682006,4.80955779 11.41698,5.13787563 11.7166159,5.66222222 L12.5233841,7.06533333 L14.3555488,10.2666667 C14.7852695,11.0096174 14.7881661,11.9282102 14.3631398,12.6739123 C13.9381134,13.4196145 13.1502946,13.8781555 12.2985976,13.8755556 Z" id="Path" fill="url(#linearGradient-1)"></path>
            <path d="M2.68512195,13.8755556 C3.5333667,13.8763831 4.3170807,13.4181494 4.7389939,12.6746667 L5.85060976,10.7457778 L7.49801829,7.86177778 L6.26631098,5.66222222 C6.25472975,5.63869234 6.24024449,5.61673976 6.22320122,5.59688889 C5.90018916,5.08651521 5.33721004,4.78317843 4.73776135,4.79652428 C4.13831266,4.80987014 3.58910523,5.13796814 3.28865854,5.66222222 L2.46341463,7.06533333 L0.63125,10.2666667 C0.20181077,11.0091369 0.198623621,11.9270624 0.62289645,12.6725585 C1.04716928,13.4180546 1.83397495,13.8770369 2.68512195,13.8755556 Z" id="Path" fill="url(#linearGradient-2)"></path>
            <path d="M2.68512195,13.8755556 C3.5333667,13.8763831 4.3170807,13.4181494 4.7389939,12.6746667 L5.85060976,10.7457778 L7.49801829,7.86177778 L6.26631098,5.66222222 C6.25472975,5.63869234 6.24024449,5.61673976 6.22320122,5.59688889 C5.90018916,5.08651521 5.33721004,4.78317843 4.73776135,4.79652428 C4.13831266,4.80987014 3.58910523,5.13796814 3.28865854,5.66222222 L2.46341463,7.06533333 L0.63125,10.2666667 C0.20181077,11.0091369 0.198623621,11.9270624 0.62289645,12.6725585 C1.04716928,13.4180546 1.83397495,13.8770369 2.68512195,13.8755556 Z" id="Path" fill="url(#linearGradient-2)"></path>
            <path d="M11.7166159,5.66222222 C11.4164273,5.13822496 10.8673243,4.81051361 10.2682116,4.79779705 C9.66909887,4.7850805 9.10685784,5.08920284 8.78515244,5.6 C8.76810917,5.61985087 8.75362391,5.64180345 8.74204268,5.66533333 L7.49185976,7.86488889 L6.23859756,5.66222222 C5.9318734,5.12431833 5.36420417,4.79283142 4.74977134,4.79283142 C4.13533851,4.79283142 3.56766928,5.12431833 3.26094512,5.66222222 L4.75439024,3.06133333 L5.98609756,0.883555556 C6.29322448,0.347170079 6.86005149,0.016859236 7.47338415,0.016859236 C8.0867168,0.016859236 8.65354381,0.347170079 8.96067073,0.883555556 L10.2170122,3.07688889 L11.7166159,5.66222222 Z" id="Path" fill="url(#linearGradient-3)"></path>
            <path d="M6.2447561,5.66222222 C6.23317487,5.63869234 6.21868961,5.61673976 6.20164634,5.59688889 C5.71041743,4.81442101 4.69616624,4.56200858 3.90143293,5.02444444 C5.57347561,4.18133333 6.44490854,9.69111111 6.44490854,9.69111111 L7.49185976,7.85866667 L6.2447561,5.66222222 Z" id="Path" fill="url(#linearGradient-4)" opacity="0.6" style="mix-blend-mode: multiply;"></path>
            <path d="M28.187622,6.88488889 L28.187622,12.796 C28.187622,13.076 28.0459756,13.216 27.7565244,13.216 L26.4262805,13.216 C26.1737805,13.216 26.0352134,13.1008889 26.0136585,12.8706667 L25.9397561,11.8875556 C25.3054268,12.881037 24.2143394,13.3777778 22.6664939,13.3777778 C21.8546601,13.4221563 21.0548975,13.1642499 20.418628,12.6528889 C19.8513086,12.1290859 19.5481099,11.374681 19.5933841,10.5995556 C19.5819245,10.1294775 19.6878234,9.66405358 19.901311,9.24622222 C20.0928998,8.8775813 20.3749249,8.56478838 20.7203963,8.33777778 C21.1373743,8.08210389 21.5929749,7.89713834 22.0691159,7.79022222 C22.6311843,7.65253686 23.2023202,7.55584333 23.7781098,7.50088889 C24.3570122,7.44696296 25.0549797,7.41377778 25.8720122,7.40133333 L25.8720122,6.99377778 C25.9087799,6.52530656 25.729196,6.06596243 25.3854878,5.74933333 C25.0611382,5.48177778 24.5397154,5.348 23.8212195,5.348 C22.8964463,5.3590035 21.9817578,5.54362197 21.1237805,5.89244444 C21.0226603,5.94168451 20.9048691,5.94181369 20.8036433,5.89279552 C20.7024176,5.84377735 20.6287343,5.75092727 20.6033841,5.64044444 L20.280061,4.63866667 C20.2061585,4.42088889 20.280061,4.25288889 20.5294817,4.13155556 C21.667197,3.65096284 22.8898999,3.40960972 24.1229878,3.42222222 C26.8327439,3.42222222 28.187622,4.57644444 28.187622,6.88488889 Z M25.8658537,9.61022222 L25.8658537,8.82622222 C25.1945732,8.85111111 24.6433841,8.88533333 24.2122866,8.92888889 C23.7951734,8.96769058 23.3827115,9.04686875 22.9805793,9.16533333 C22.6570876,9.24019851 22.361293,9.40634811 22.127622,9.64444444 C21.943616,9.87201013 21.8483331,10.1597082 21.8597256,10.4533333 C21.8430601,10.8129381 21.9961521,11.1592258 22.2723476,11.3866667 C22.6092848,11.6364027 23.0223411,11.7586279 23.4393902,11.732 C24.0955936,11.7809154 24.7449018,11.5700509 25.25,11.144 C25.6644793,10.7463105 25.8889518,10.1872637 25.8658537,9.61022222 Z" id="Shape" fill="#000000" fill-rule="nonzero"></path>
            <path d="M37.2345122,12.88 L37.1790854,11.8813333 C36.909876,12.3938052 36.4752418,12.7978037 35.947378,13.0262222 C35.3679821,13.2945563 34.7371555,13.4305243 34.0998171,13.4244444 C32.8270528,13.4244444 31.8406606,13.0034074 31.1406402,12.1613333 C30.4385671,11.3213333 30.0875305,10.0737778 30.0875305,8.428 C30.0875305,6.78222222 30.4385671,5.53466667 31.1406402,4.69466667 C31.8427134,3.85466667 32.8342378,3.42222222 34.1059756,3.42222222 C34.7302807,3.41768694 35.3477454,3.55372235 35.9135061,3.82044444 C36.4245367,4.04362701 36.8456724,4.43512226 37.1082622,4.93111111 L37.1082622,0.833777778 C37.1082622,0.566222222 37.2468293,0.432444444 37.5208841,0.432444444 L39.0605183,0.432444444 C39.3468902,0.432444444 39.4916159,0.566222222 39.4916159,0.833777778 L39.4916159,12.8053333 C39.5055612,12.9233142 39.464018,13.0410852 39.3793621,13.1235618 C39.2947062,13.2060384 39.1767075,13.2437024 39.0605183,13.2253333 L37.656372,13.2253333 C37.4007927,13.2253333 37.2591463,13.1102222 37.2345122,12.88 Z M37.1267378,8.428 C37.1267378,6.39333333 36.3476829,5.376 34.7895732,5.376 C34.1419602,5.32789641 33.5104976,5.59488242 33.0898171,6.09466667 C32.7110671,6.57066667 32.5232317,7.33911111 32.5232317,8.428 C32.5232317,9.51688889 32.7110671,10.2946667 33.0898171,10.7613333 C33.5118146,11.2629665 34.1460165,11.5301427 34.7957317,11.48 C36.3497358,11.48 37.1267378,10.4626667 37.1267378,8.428 Z" id="Shape" fill="#000000" fill-rule="nonzero"></path>
            <path d="M46.4723171,13.2253333 L44.726372,13.2253333 C44.4959699,13.2464845 44.2820363,13.1028187 44.2121341,12.88 L41.1174695,4.12222222 C41.0096951,3.81111111 41.1174695,3.64933333 41.4253963,3.64933333 L42.9342378,3.64933333 C43.1744207,3.64933333 43.3283841,3.79555556 43.3992073,4.09111111 L44.7571646,8.21022222 L45.5885671,10.8266667 L45.6501524,10.8266667 L46.3984146,8.17911111 L47.7286585,4.04444444 C47.7645015,3.80673103 47.9711989,3.63404072 48.2090244,3.64311111 L49.8102439,3.64311111 C49.9248701,3.62874208 50.0378154,3.68039334 50.1027744,3.77688889 C50.1528925,3.87989095 50.1528925,4.00055349 50.1027744,4.10355556 L46.9865549,12.8675556 C46.921361,13.0953372 46.7061923,13.2450395 46.4723171,13.2253333 Z" id="Path" fill="#000000"></path>
            <path d="M54.1181402,0.886666667 L54.1181402,2.15911111 C54.1181402,2.43911111 53.988811,2.576 53.7239939,2.576 L52.1227744,2.576 C51.8610366,2.576 51.728628,2.43911111 51.728628,2.15911111 L51.728628,0.886666667 C51.728628,0.609777778 51.8610366,0.469777778 52.1227744,0.469777778 L53.7239939,0.469777778 C53.988811,0.469777778 54.1181402,0.622222222 54.1181402,0.886666667 Z M54.1181402,4.06622222 L54.1181402,12.8053333 C54.1347022,12.9204836 54.096718,13.0368011 54.0155847,13.1193852 C53.9344514,13.2019692 53.81961,13.24121 53.7055183,13.2253333 L52.14125,13.2253333 C52.0276531,13.2401313 51.9137419,13.2004123 51.8333585,13.1179763 C51.7529751,13.0355404 51.715367,12.9198713 51.7317073,12.8053333 L51.7317073,4.06622222 C51.7162183,3.95156836 51.75468,3.83619199 51.8356667,3.75436778 C51.9166534,3.67254356 52.0308489,3.63368411 52.1443293,3.64933333 L53.7085976,3.64933333 C53.8218752,3.63342159 53.935957,3.67232288 54.0165233,3.7543344 C54.0970897,3.83634591 54.1347372,3.95189558 54.1181402,4.06622222 Z" id="Shape" fill="#000000" fill-rule="nonzero"></path>
            <path d="M57.4375915,12.1333333 C56.5692378,11.2622222 56.135061,10.0177778 56.135061,8.4 C56.135061,6.78222222 56.5630793,5.55022222 57.4191159,4.704 C58.2782317,3.85777778 59.429878,3.42222222 60.8832927,3.42222222 C62.0698374,3.42222222 62.9936179,3.62962963 63.6546341,4.04444444 C63.762907,4.08352975 63.8499316,4.16679871 63.8944442,4.27390527 C63.9389568,4.38101184 63.9368573,4.50209007 63.8886585,4.60755556 L63.4544817,5.6 C63.4123893,5.7155564 63.3204859,5.80544518 63.204807,5.84420173 C63.089128,5.88295828 62.9622745,5.86636077 62.8601829,5.79911111 C62.3268511,5.56559404 61.7508953,5.44793973 61.1696646,5.45377778 C60.4532525,5.40982864 59.7525631,5.67827766 59.245122,6.19111111 C58.7893902,6.67955556 58.5615244,7.43555556 58.5615244,8.41555556 C58.5615244,9.39555556 58.7893902,10.1764444 59.245122,10.6773333 C59.7346943,11.1959875 60.4243888,11.4722174 61.1327134,11.4333333 C61.7747931,11.4418413 62.4091516,11.2912254 62.9802744,10.9946667 C63.2543293,10.8764444 63.4421646,10.9417778 63.537622,11.1968889 L63.9687195,12.1955556 C64.0518598,12.4008889 63.9687195,12.5875556 63.7162195,12.7586667 C62.8798065,13.2345014 61.9285623,13.4650746 60.9695122,13.4244444 C59.4853049,13.4244444 58.307998,12.9940741 57.4375915,12.1333333 Z" id="Path" fill="#000000"></path>
            <path d="M68.3166463,11.0351111 C68.8937556,11.4723693 69.6038091,11.6924295 70.3243293,11.6573333 C71.1390814,11.658934 71.9428095,11.4671136 72.6707317,11.0973333 C72.9201524,10.9791111 73.1018293,11.0631111 73.2096037,11.3524444 L73.5175305,12.208 C73.5826597,12.4275251 73.4643166,12.6597873 73.2496341,12.7337778 C72.2754067,13.2154858 71.2025478,13.458496 70.1180183,13.4431111 C68.5229573,13.4431111 67.2820122,13.0044444 66.3859451,12.124 C65.489878,11.2435556 65.0464634,10.0208889 65.0464634,8.44666667 C65.0464634,6.87244444 65.4590854,5.628 66.2781707,4.74755556 C67.0972561,3.86711111 68.2181098,3.43155556 69.6345732,3.43155556 C71.0510366,3.43155556 72.0795122,3.84533333 72.8339329,4.676 C73.5883537,5.50666667 73.9671037,6.61111111 73.9671037,7.99244444 L73.9671037,8.88222222 C73.9837216,9.00210518 73.9436802,9.12291733 73.8589589,9.2085147 C73.7742376,9.29411207 73.654662,9.33456752 73.5360061,9.31777778 L67.4082622,9.31777778 C67.4757177,9.98865001 67.8020821,10.6056538 68.3166463,11.0351111 Z M69.6746037,5.21111111 C68.247876,5.21111111 67.4749797,6.07185185 67.3559146,7.79333333 L71.8146951,7.79333333 L71.8146951,7.68444444 C71.8543812,7.03190342 71.6597685,6.38679604 71.2665854,5.86755556 C70.8639103,5.41327351 70.2768974,5.17122214 69.6746037,5.21111111 Z" id="Shape" fill="#000000" fill-rule="nonzero"></path>
            <path d="M84.1687195,7.50088889 L84.1687195,12.7897778 C84.1908524,12.9073521 84.1553651,13.0284838 84.0734572,13.1149441 C83.9915493,13.2014045 83.8733258,13.2425269 83.7560976,13.2253333 L82.2164634,13.2253333 C82.1018805,13.2423021 81.986102,13.2035467 81.9042139,13.1208118 C81.8223259,13.0380769 81.7839671,12.9211011 81.8007622,12.8053333 L81.8007622,7.32044444 C81.8344633,6.83671788 81.7112301,6.35507021 81.4497256,5.94844444 C81.1598973,5.61499138 80.7291499,5.4425311 80.2919207,5.48488889 C79.7410009,5.45407955 79.2046829,5.67036982 78.826189,6.076 C78.4604612,6.49911009 78.2707017,7.04863843 78.2965549,7.60977778 L78.2965549,12.8053333 C78.3117907,12.916304 78.2764709,13.0282766 78.2004918,13.109877 C78.1245128,13.1914773 78.0160476,13.2339276 77.9054878,13.2253333 L76.3658537,13.2253333 C76.0764024,13.2253333 75.9347561,13.0853333 75.9347561,12.8053333 L75.9347561,4.06622222 C75.9347561,3.78933333 76.0764024,3.64933333 76.3658537,3.64933333 L77.7853963,3.64933333 C77.8912865,3.63321259 77.9989226,3.66390273 78.0808488,3.73357531 C78.162775,3.80324788 78.21107,3.90516637 78.2134146,4.01333333 L78.3057927,4.94666667 C78.5538024,4.50072837 78.9166384,4.13091521 79.3558232,3.87644444 C79.9053785,3.55678558 80.5327121,3.39940828 81.1664329,3.42222222 C82.5705793,3.42222222 83.4820427,3.96148148 83.9008232,5.04 C84.5351524,3.96148148 85.577998,3.42222222 87.0293598,3.42222222 C88.0352541,3.42222222 88.7907012,3.72503704 89.2957012,4.33066667 C89.8007012,4.9362963 90.0521748,5.796 90.050122,6.90977778 L90.050122,12.8053333 C90.0666839,12.9204836 90.0286997,13.0368011 89.9475664,13.1193852 C89.8664331,13.2019692 89.7515917,13.24121 89.6375,13.2253333 L88.0978659,13.2253333 C87.983283,13.2423021 87.8675044,13.2035467 87.7856164,13.1208118 C87.7037283,13.0380769 87.6653696,12.9211011 87.6821646,12.8053333 L87.6821646,7.33911111 C87.7177186,6.84804561 87.5910077,6.35893907 87.3218902,5.94844444 C87.0213866,5.6133849 86.5818357,5.44151388 86.136372,5.48488889 C85.6004273,5.45699536 85.0789618,5.66592182 84.7075915,6.05733333 C84.3462103,6.44766178 84.1524701,6.9666623 84.1687195,7.50088889 Z" id="Path" fill="#019CFE"></path>
            <path d="M95.2202134,11.0351111 C95.7957781,11.4730961 96.5051415,11.6932801 97.2248171,11.6573333 C98.0432681,11.6591762 98.850514,11.4651395 99.5804573,11.0911111 C99.8329573,10.9728889 100.011555,11.0568889 100.119329,11.3462222 L100.427256,12.2017778 C100.492095,12.4221948 100.372194,12.6548411 100.15628,12.7275556 C99.1832549,13.2095642 98.1113202,13.452604 97.0277439,13.4368889 C95.4326829,13.4368889 94.1886585,12.9971852 93.2956707,12.1177778 C92.4026829,11.2383704 91.956189,10.0125926 91.956189,8.44044444 C91.956189,6.85377778 92.3667581,5.62074074 93.1878963,4.74133333 C94.0090346,3.86192593 95.1268089,3.42222222 96.5412195,3.42222222 C97.9207317,3.42222222 98.9882114,3.83703704 99.7436585,4.66666667 C100.499106,5.4962963 100.876829,6.60177778 100.876829,7.98311111 L100.876829,8.87288889 C100.893447,8.99277185 100.853406,9.113584 100.768685,9.19918137 C100.683963,9.28477874 100.564388,9.32523418 100.445732,9.30844444 L94.3118293,9.30844444 C94.3742818,9.98345847 94.7013702,10.6051917 95.2202134,11.0351111 Z M96.5781707,5.21111111 C95.1534959,5.21111111 94.3805996,6.07185185 94.2594817,7.79333333 L98.7182622,7.79333333 L98.7182622,7.68444444 C98.7579483,7.03190342 98.5633356,6.38679604 98.1701524,5.86755556 C97.7674774,5.41327351 97.1804645,5.17122214 96.5781707,5.21111111 Z" id="Shape" fill="#019CFE" fill-rule="nonzero"></path>
        </g>
    </g>
</svg>