<?xml version="1.0" encoding="UTF-8"?>
<svg width="20px" height="22px" viewBox="0 0 20 22" version="1.1" xmlns="http://www.w3.org/2000/svg" xmlns:xlink="http://www.w3.org/1999/xlink">
    <!-- Generator: Sketch 52 (66869) - http://www.bohemiancoding.com/sketch -->
    <title>Iso AdviceMe</title>
    <desc>Created with Sketch.</desc>
    <defs>
        <linearGradient x1="60.8311731%" y1="95.6825957%" x2="32.0006242%" y2="-19.4106909%" id="linearGradient-1">
            <stop stop-color="#57D2FE" offset="0%"></stop>
            <stop stop-color="#57EFFE" offset="100%"></stop>
        </linearGradient>
        <linearGradient x1="21.1673934%" y1="82.490349%" x2="82.8717856%" y2="12.4861681%" id="linearGradient-2">
            <stop stop-color="#017DDA" offset="4%"></stop>
            <stop stop-color="#015ED5" offset="100%"></stop>
        </linearGradient>
        <linearGradient x1="95.010925%" y1="53.8567832%" x2="21.7771304%" y2="47.3158633%" id="linearGradient-3">
            <stop stop-color="#57D2FE" offset="0%"></stop>
            <stop stop-color="#019CFE" offset="100%"></stop>
        </linearGradient>
        <linearGradient x1="-1.52346213e-14%" y1="50.0719149%" x2="100%" y2="50.0719149%" id="linearGradient-4">
            <stop stop-color="#017DDA" offset="4%"></stop>
            <stop stop-color="#015ED5" offset="100%"></stop>
        </linearGradient>
    </defs>
    <g id="Iso-AdviceMe" stroke="none" stroke-width="1" fill="none" fill-rule="evenodd">
        <g id="SVG-(3)" transform="translate(0.000000, 1.000000)">
            <path d="M3.56402439,9.42439024 L4.52012195,7.76829268" id="Path"></path>
            <path d="M17.047561,19.0365854 C15.8722513,19.0359504 14.7867381,18.4077524 14.2006098,17.3890244 L12.672561,14.7426829 L10.3847561,10.7859756 L12.1176829,7.76829268 C12.1337361,7.73601083 12.1538147,7.70589296 12.177439,7.67865854 C12.6240937,6.97829511 13.4039006,6.56184047 14.2343665,6.58015957 C15.0648325,6.59847867 15.8255168,7.04891473 16.2408537,7.76829268 L17.3591463,9.69329268 L19.8987805,14.0853659 C20.4944329,15.1046581 20.4984481,16.3649225 19.9093026,17.3879895 C19.3201572,18.4110565 18.2281311,19.0401523 17.047561,19.0365854 Z" id="Path" fill="url(#linearGradient-1)"></path>
            <path d="M3.72195122,19.0365854 C4.89773602,19.0377207 5.98407225,18.4090464 6.56890244,17.3890244 L8.1097561,14.7426829 L10.3932927,10.7859756 L8.68597561,7.76829268 C8.66992242,7.73601083 8.64984384,7.70589296 8.62621951,7.67865854 C8.17848002,6.97845075 7.39811293,6.56228748 6.56719395,6.58059734 C5.73627497,6.5989072 4.97499734,7.04904166 4.55853659,7.76829268 L3.41463415,9.69329268 L0.875,14.0853659 C0.279737701,15.1039988 0.27531987,16.3633478 0.863420822,17.3861321 C1.45152177,18.4089164 2.5421435,19.0386176 3.72195122,19.0365854 Z" id="Path" fill="url(#linearGradient-2)"></path>
            <path d="M3.72195122,19.0365854 C4.89773602,19.0377207 5.98407225,18.4090464 6.56890244,17.3890244 L8.1097561,14.7426829 L10.3932927,10.7859756 L8.68597561,7.76829268 C8.66992242,7.73601083 8.64984384,7.70589296 8.62621951,7.67865854 C8.17848002,6.97845075 7.39811293,6.56228748 6.56719395,6.58059734 C5.73627497,6.5989072 4.97499734,7.04904166 4.55853659,7.76829268 L3.41463415,9.69329268 L0.875,14.0853659 C0.279737701,15.1039988 0.27531987,16.3633478 0.863420822,17.3861321 C1.45152177,18.4089164 2.5421435,19.0386176 3.72195122,19.0365854 Z" id="Path" fill="url(#linearGradient-2)"></path>
            <path d="M16.2408537,7.76829268 C15.8247507,7.04939399 15.0636178,6.59979002 14.2331645,6.58234352 C13.4027113,6.56489702 12.6233673,6.98213804 12.177439,7.68292683 C12.1538147,7.71016126 12.1337361,7.74027912 12.1176829,7.77256098 L10.3847561,10.7902439 L8.64756098,7.76829268 C8.22239877,7.03031479 7.43553053,6.57553092 6.58384146,6.57553092 C5.73215239,6.57553092 4.94528415,7.03031479 4.52012195,7.76829268 L6.5902439,4.2 L8.29756098,1.21219512 C8.72328146,0.476300413 9.50898227,0.0231300494 10.3591463,0.0231300494 C11.2093104,0.0231300494 11.9950112,0.476300413 12.4207317,1.21219512 L14.1621951,4.22134146 L16.2408537,7.76829268 Z" id="Path" fill="url(#linearGradient-3)"></path>
            <path d="M8.65609756,7.76829268 C8.64004437,7.73601083 8.61996579,7.70589296 8.59634146,7.67865854 C7.9154301,6.60515078 6.50953736,6.25885324 5.40792683,6.89329268 C7.72560976,5.73658537 8.93353659,13.2957317 8.93353659,13.2957317 L10.3847561,10.7817073 L8.65609756,7.76829268 Z" id="Path" fill="url(#linearGradient-4)" opacity="0.6" style="mix-blend-mode: multiply;"></path>
        </g>
    </g>
</svg>